<svg width="80" height="80" viewBox="0 0 80 80" fill="none" xmlns="http://www.w3.org/2000/svg">
<g clip-path="url(#clip0_20_195)">
<circle cx="3" cy="3" r="3" fill="#14213D"/>
<circle cx="18" cy="3" r="3" fill="#14213D"/>
<circle cx="33" cy="3" r="3" fill="#14213D"/>
<circle cx="48" cy="3" r="3" fill="#14213D"/>
<circle cx="63" cy="3" r="3" fill="#14213D"/>
<circle cx="78" cy="3" r="3" fill="#14213D"/>
<circle cx="3" cy="18" r="3" fill="#14213D"/>
<circle cx="18" cy="18" r="3" fill="#14213D"/>
<circle cx="33" cy="18" r="3" fill="#14213D"/>
<circle cx="48" cy="18" r="3" fill="#14213D"/>
<circle cx="63" cy="18" r="3" fill="#14213D"/>
<circle cx="78" cy="18" r="3" fill="#14213D"/>
<circle cx="3" cy="33" r="3" fill="#14213D"/>
<circle cx="18" cy="33" r="3" fill="#14213D"/>
<circle cx="33" cy="33" r="3" fill="#14213D"/>
<circle cx="48" cy="33" r="3" fill="#14213D"/>
<circle cx="63" cy="33" r="3" fill="#14213D"/>
<circle cx="78" cy="33" r="3" fill="#14213D"/>
<circle cx="3" cy="48" r="3" fill="#14213D"/>
<circle cx="18" cy="48" r="3" fill="#14213D"/>
<circle cx="33" cy="48" r="3" fill="#14213D"/>
<circle cx="48" cy="48" r="3" fill="#14213D"/>
<circle cx="63" cy="48" r="3" fill="#14213D"/>
<circle cx="78" cy="48" r="3" fill="#14213D"/>
<circle cx="3" cy="63" r="3" fill="#14213D"/>
<circle cx="18" cy="63" r="3" fill="#14213D"/>
<circle cx="33" cy="63" r="3" fill="#14213D"/>
<circle cx="48" cy="63" r="3" fill="#14213D"/>
<circle cx="63" cy="63" r="3" fill="#14213D"/>
<circle cx="78" cy="63" r="3" fill="#14213D"/>
<circle cx="3" cy="78" r="3" fill="#14213D"/>
<circle cx="18" cy="78" r="3" fill="#14213D"/>
<circle cx="33" cy="78" r="3" fill="#14213D"/>
<circle cx="48" cy="78" r="3" fill="#14213D"/>
<circle cx="63" cy="78" r="3" fill="#14213D"/>
<circle cx="78" cy="78" r="3" fill="#14213D"/>
</g>
<defs>
<clipPath id="clip0_20_195">
<rect width="80" height="80" fill="white"/>
</clipPath>
</defs>
</svg>
